<svg width="47" height="71" viewBox="0 0 47 71" fill="none" xmlns="http://www.w3.org/2000/svg">
<path d="M14.8406 38.9046L3.29406 27.9822L2.66992 25.3816L9.91686 9.15404L14.0778 11.5119L24.2721 1.10959L46.637 23.4052L42.4414 27.6355L17.9266 70.8397L3.57145 64.2516L17.2678 40.1183L13.9738 43.4123L14.8406 38.9046ZM16.609 29.2652L20.9433 33.6341L25.8324 25.0002L21.4981 20.5966L16.609 29.2652Z" fill="#0D0D0D"/>
<path d="M10.3676 38.6619L2.39253 26.5259L1.14425 20.3192L6.31074 8.00979L10.4717 10.3676L20.7006 -0.034668L43.0656 22.2609L38.87 26.4912L14.3552 69.6955L0 63.1074L13.315 38.7313L13.6964 38.974L10.3676 38.6619Z" fill="#F05C4E"/>
<path d="M24.099 38.4192C23.9603 38.6619 23.6136 38.766 23.3708 38.6273C23.1281 38.4886 23.0241 38.1418 23.1628 37.8991L22.7814 38.0378L15.0143 33.114C14.9103 33.0794 13.454 34.7091 13.3846 34.605L4.612 23.96C4.4733 23.7866 8.39151 19.0362 8.49553 18.8282L9.50109 14.5632C9.57043 14.4245 9.70913 14.3205 9.88251 14.2859L15.5344 13.3496L20.0074 8.35654C20.2155 8.14849 20.5622 8.14849 20.7703 8.35654L33.4264 20.5966C33.5998 20.77 33.6691 21.0474 33.5304 21.2554" fill="white"/>
<path d="M20.9435 33.3221C20.9435 33.3221 19.3485 25.3123 18.5856 25.139C18.3082 25.0696 13.5232 25.2777 13.5232 25.3123C12.4829 28.0863 10.8186 33.0794 10.8186 33.0794C10.8186 33.0794 9.57029 24.3414 8.98083 21.4635C6.20688 22.157 1.76855 22.8851 1.76855 22.8851C2.46204 25.7631 4.33446 39.4595 4.33446 39.4595L13.4191 39.2167C13.4191 39.2167 14.078 37.2403 15.777 33.8422C16.6092 37.5871 16.8172 39.7022 16.8172 39.7022L25.7632 39.7369C25.7632 39.7369 29.8201 25.1736 29.9588 23.96C29.3 23.752 23.1626 21.9142 22.4692 21.7062C22.4345 21.7755 20.9435 33.3221 20.9435 33.3221Z" fill="#0D0D0D"/>
<path d="M20.4582 30.7562C20.4582 30.7562 18.8631 22.7464 18.1003 22.573C17.8229 22.5037 13.0378 22.7117 13.0378 22.7464C11.9976 25.5204 10.3332 30.5135 10.3332 30.5135C10.3332 30.5135 9.05029 21.7755 8.4955 18.8976C5.72155 19.591 1.14453 20.3539 1.14453 20.3539C1.83802 23.2318 3.84913 36.8936 3.84913 36.8936L12.9338 36.6508C12.9338 36.6508 13.5926 34.6744 15.2917 31.2763C16.1239 35.0211 16.3319 37.1363 16.3319 37.1363L25.2779 37.1709C25.2779 37.1709 29.3348 22.6077 29.4735 21.3941C28.8147 21.1861 22.6773 19.3483 21.9838 19.1403C21.9838 19.2096 20.4582 30.7562 20.4582 30.7562Z" fill="#198F90"/>
<path d="M24.6186 21.4288C24.4799 21.3594 24.3412 21.3941 24.2719 21.5328C23.7518 22.5037 21.2205 32.0738 20.527 34.7091L15.2219 24.1334L9.0845 34.5357C8.49503 31.8311 6.2412 21.5328 5.99848 20.9087C5.9638 20.77 5.79043 20.7006 5.68641 20.77C5.54771 20.8046 5.47837 20.978 5.54771 21.082C5.75576 21.6368 7.94024 31.519 8.73776 35.2985L8.87645 35.9227L15.1872 25.2083L20.6657 36.1654L20.8391 35.5066C21.9834 31.1376 24.2719 22.6077 24.7226 21.7755C24.792 21.6368 24.7573 21.4981 24.6186 21.4288Z" fill="white"/>
<path d="M38.5576 22.2263C38.4189 22.261 38.2455 22.469 38.1068 22.6771C37.448 23.7866 25.2773 40.7424 17.2329 51.9422C12.6905 58.253 9.11907 63.2114 8.49493 64.1823C8.35623 64.3903 8.28688 64.6331 8.39091 64.7024C8.49493 64.7717 8.70297 64.633 8.87634 64.3903C9.53516 63.4541 13.1066 58.4957 17.6143 52.1849C34.1886 29.0918 38.5229 23.0238 38.6963 22.5384C38.7657 22.3303 38.6963 22.1916 38.5576 22.2263Z" fill="white"/>
<path d="M38.6615 22.2609C38.6615 22.1569 38.6268 22.0182 38.4881 21.9836C37.9334 21.6021 30.201 14.4592 25.0692 9.70882C22.1912 7.0389 19.9027 4.92376 19.4866 4.54234C19.3826 4.43832 19.2439 4.43832 19.1745 4.54234C19.1052 4.64637 19.1398 4.78506 19.2092 4.88909C19.6253 5.2705 21.9138 7.35097 24.7918 10.0209C35.3328 19.7644 38.1414 22.3303 38.4188 22.3996C38.5228 22.469 38.6268 22.3996 38.6615 22.2609Z" fill="white"/>
<path d="M19.1745 4.473C19.1051 4.43833 19.0358 4.43833 19.0358 4.50768C18.9317 4.78507 16.0884 7.80174 14.216 9.81286C13.1411 10.9571 12.3089 11.824 12.1702 11.9973C12.1356 12.032 12.1702 12.136 12.2743 12.2054C12.3436 12.2747 12.4476 12.3094 12.4823 12.2747C12.621 12.1014 13.4532 11.1998 14.5281 10.0903C18.4116 5.964 19.4172 4.85442 19.3825 4.68105C19.3478 4.64637 19.2438 4.54235 19.1745 4.473Z" fill="white"/>
<path d="M12.4137 11.928C12.4137 11.824 12.379 11.7893 12.3443 11.824C12.2056 11.928 9.88244 11.8933 8.32209 11.8933C7.45523 11.8933 6.76175 11.8587 6.65772 11.8933C6.62305 11.8933 6.62305 11.9973 6.62305 12.1014C6.62305 12.2054 6.65772 12.3094 6.69239 12.3094C6.83109 12.3094 7.48991 12.3094 8.35677 12.3094C11.5121 12.3441 12.379 12.3441 12.4137 12.2054C12.4483 12.1707 12.4483 12.032 12.4137 11.928Z" fill="white"/>
<path d="M6.65743 12.0667C6.55341 12.0667 6.51873 12.1014 6.55341 12.1707C6.62276 12.4134 6.17199 15.9849 5.85992 18.3428C5.68655 19.6604 5.54785 20.7353 5.54785 20.9433C5.54785 20.978 5.6172 21.0474 5.75589 21.0474C5.85992 21.0474 5.96394 21.0474 5.96394 20.978C5.96394 20.77 6.10264 19.7297 6.27601 18.4121C6.90015 13.523 7.03885 12.2401 6.93483 12.1361C6.90015 12.0667 6.76145 12.032 6.65743 12.0667Z" fill="white"/>
<path fill-rule="evenodd" clip-rule="evenodd" d="M16.4354 17.2332C16.4701 17.3719 16.5048 17.5106 16.5048 17.6492C16.5048 18.4814 15.8113 19.1402 14.9791 19.1402C14.1469 19.1402 13.4534 18.4468 13.4534 17.6146C13.4534 16.7824 14.1469 16.0889 14.9791 16.0889C15.6726 16.1236 16.2274 16.5743 16.4354 17.2332ZM15.1525 25.2083C15.3952 24.8962 18.4812 19.7297 18.6893 19.3136C20.1109 16.5397 17.441 13.8004 14.2509 14.2858C13.3494 14.4245 12.4479 14.8059 11.8584 15.3607C11.2689 15.9155 10.6795 16.713 10.7835 17.7533C10.8528 18.2734 10.9569 18.6201 11.1649 19.0709C11.7891 20.3538 14.1469 23.6479 15.1525 25.2083Z" fill="#FAAE43"/>
</svg>
